<svg width="50" height="50" viewBox="0 0 50 50" fill="none" xmlns="http://www.w3.org/2000/svg">
<path d="M25.0026 37.4999C30.7526 37.4999 35.4193 32.8333 35.4193 27.0833H14.5859C14.5859 32.8333 19.2526 37.4999 25.0026 37.4999Z" fill="#201515"/>
<path d="M17.7083 23.4374C19.7219 23.4374 21.3542 21.8051 21.3542 19.7916C21.3542 17.778 19.7219 16.1458 17.7083 16.1458C15.6948 16.1458 14.0625 17.778 14.0625 19.7916C14.0625 21.8051 15.6948 23.4374 17.7083 23.4374Z" fill="#201515"/>
<path d="M32.2943 23.4374C34.3078 23.4374 35.9401 21.8051 35.9401 19.7916C35.9401 17.778 34.3078 16.1458 32.2943 16.1458C30.2807 16.1458 28.6484 17.778 28.6484 19.7916C28.6484 21.8051 30.2807 23.4374 32.2943 23.4374Z" fill="#201515"/>
<path d="M25.0013 4.16663C13.5221 4.16663 4.16797 13.5208 4.16797 25C4.16797 36.4791 13.5221 45.8333 25.0013 45.8333C36.4805 45.8333 45.8346 36.4791 45.8346 25C45.8346 13.5208 36.4805 4.16663 25.0013 4.16663ZM25.0013 41.6666C15.8138 41.6666 8.33464 34.1875 8.33464 25C8.33464 15.8125 15.8138 8.33329 25.0013 8.33329C34.1888 8.33329 41.668 15.8125 41.668 25C41.668 34.1875 34.1888 41.6666 25.0013 41.6666Z" fill="#201515"/>
</svg>
